<svg data-name="Layer 1" xmlns="http://www.w3.org/2000/svg" viewBox="0 0 1000 214"><title>an-logo-horizontal</title><path fill="#fff" opacity=".5" d="M500 0h500v214H500z"/><path d="M0 0h500v214H0z"/><path d="M436.26 116.86h10.86v50h-9.36l-24.21-31.79v31.79h-10.87v-47.63L296.37 90l-40.56 5.55-45.86 22 14.45 7.36v-8h8.79v12.51l68.6 34.95L322 116.5h13.35l21.29 50.36h-14.87l-3.64-8.93h-19.28l-3.57 8.93h-14.59l-67.5-34.39v26.38h26.29v8H224.4V128l-17.59-9-26 12.46a25.74 25.74 0 0 1 2.09 10.22v.14c0 14.35-11.58 26-27 26S129 156.37 129 142v-.14c0-14.36 11.57-26 27-26 10.45 0 19.06 5.29 23.53 13.16l24.16-11.57-22.85-11.64-93.32 12.75v48.31h-9.35L54 135.07v31.79H43.09v-50h10.15l23.43 30.79v-30.79h2.87l97-13.26-53.27-27.13v3.59h-7.42v-7.37L70.47 49.57l12.76 30.49h-12.4L69 75.47H57l-1.7 4.59H43.09L57.5 45.63h11.32l47 24V45.87h6.93l16 21v-21h7.42l46.68 12.82v-4.51h-10.19v-8.3h30v8.3h-10.27v7.14L241.25 72V45.87h7.52V59.4h13.87V45.87h7.52v34.07l7.53 2.06 25.88-12.4a17.49 17.49 0 0 1-1.27-6.55V63c0-9.91 8.16-17.82 18.7-17.82s18.6 7.82 18.6 17.69V63c0 9.91-8.15 17.82-18.7 17.82a18.52 18.52 0 0 1-16.08-8.69l-23 11 14.76 4.06 69.72-9.54V45.87h6.94l16 21v-21h7.42v34.19h-6.39l-16.61-21.73v21.73h-4.35l-66 9 101.13 27.79h8.34l23.43 30.79v-30.78M313.82 63c0 4.05 2.79 7.71 7.18 7.71s7.07-3.61 7.07-7.62V63c0-4.06-2.78-7.72-7.17-7.72s-7.08 3.61-7.08 7.62v.1zM66.19 67.36l-3.13-8.3-3.12 8.3h6.25zm100.26 74.5c0-5.94-4.28-11.1-10.57-11.1s-10.39 5-10.39 11v.12c0 5.92 4.29 11.09 10.51 11.09s10.45-5 10.45-11v-.11zm156.47 5.3h11.22l-5.57-14.22zm-74.15-73.09l13.87 3.81V66.34h-13.87v7.73zm-67.45 28.88L255 92.86l18.84-9-25.11-6.9v3.12h-7.52v-5.2L202.39 64.2v15.86h-9.47V61.59l-46.7-12.83v31.3h-6.39l-16.56-21.73v15zm65.52-6.16l-61.18 8.36 21.19 10.79zm42.71-8.64L278 85l-14 6.64zm158.78-42.3l-8.24 13.62L432 45.85h-8.83l13.09 20.64V80h7.55V66.34l13.1-20.49h-8.58z" fill="#fff"/><path d="M553.06 63.2l2.88-4.37a15.85 15.85 0 0 0 9.23 3.47c2.77 0 4.38-1.18 4.38-3v-.16c0-2.19-3-2.93-6.3-3.95-4.16-1.17-8.8-2.88-8.8-8.27v-.1c0-5.34 4.43-8.59 10-8.59a19.53 19.53 0 0 1 10.35 3.2L572.27 46a16.35 16.35 0 0 0-8-2.67c-2.51 0-3.95 1.18-3.95 2.83v.11c0 2 3 2.88 6.35 3.94 4.11 1.28 8.75 3.15 8.75 8.22v.1c0 5.92-4.59 8.86-10.46 8.86a19.8 19.8 0 0 1-12-4.21M598.2 66.87v-3.46a11.39 11.39 0 0 1-9.12 4.05c-5.34 0-10-3-10-8.69v-.1c0-6.25 4.85-9.23 11.41-9.23a23.58 23.58 0 0 1 7.79 1.18v-.55c0-3.9-2.46-6-6.93-6a19.54 19.54 0 0 0-8.06 1.76l-1.76-5.18a24.14 24.14 0 0 1 10.72-2.35c8.32 0 12.38 4.38 12.38 11.9v16.7h-6.4zm.16-11.79A18.45 18.45 0 0 0 591.9 54c-4.06 0-6.46 1.65-6.46 4.38v.11c0 2.67 2.4 4.16 5.44 4.16 4.27 0 7.47-2.4 7.47-5.92v-1.6zM608.54 38.71h6.94l7.58 20.7 7.62-20.7h6.78l-11.52 28.38h-5.82l-11.58-28.38zM642 28.25h6.94v6.14H642v-6.14zm.26 10.45h6.46v28.17h-6.46V38.71zM656.08 38.71h6.46v4.37c1.81-2.66 4.42-5 8.8-5 6.35 0 10 4.27 10 10.83v17.96h-6.46v-16c0-4.38-2.19-6.88-6-6.88s-6.35 2.62-6.35 7v15.9h-6.46V38.71zM688 72.16l2.4-4.85a18.31 18.31 0 0 0 10 3c5.76 0 8.91-3 8.91-8.64v-2.21c-2.35 3-5.28 5.17-9.92 5.17-6.61 0-12.81-4.91-12.81-13.18v-.1c0-8.32 6.24-13.23 12.81-13.23a12.16 12.16 0 0 1 9.87 4.8v-4.21h6.46v22.4c0 4.75-1.23 8.27-3.57 10.61-2.56 2.56-6.51 3.79-11.58 3.79A24.23 24.23 0 0 1 688 72.16m21.39-20.7v-.11c0-4.64-3.79-7.79-8.27-7.79s-8 3.1-8 7.74v.11a7.68 7.68 0 0 0 8 7.79c4.48 0 8.27-3.2 8.27-7.73M739 59.09V44.26h-3.57v-5.55H739V31h6.45v7.73h7.58v5.55h-7.58v13.79c0 2.51 1.28 3.52 3.47 3.52a8.67 8.67 0 0 0 4-1v5.28a11.3 11.3 0 0 1-5.81 1.44c-4.75 0-8.11-2.08-8.11-8.27M758.51 27.93H765v15.15c1.81-2.66 4.43-5 8.8-5 6.35 0 10 4.27 10 10.83v17.97h-6.45v-16c0-4.37-2.19-6.88-6-6.88S765 46.6 765 51v15.9h-6.46V27.93zM789 52.9v-.1c0-8.06 5.71-14.67 13.76-14.67 9 0 13.5 7 13.5 15.15 0 .58 0 1.17-.1 1.81h-20.7a7.87 7.87 0 0 0 8.11 7.15 10.23 10.23 0 0 0 7.63-3.37l3.8 3.37a14.26 14.26 0 0 1-11.52 5.27c-8.21 0-14.48-5.91-14.48-14.61m20.86-2.08c-.42-4.16-2.88-7.42-7.15-7.42-3.94 0-6.72 3-7.3 7.42h14.46zM836.98 27.93h6.46v38.95h-6.46zM850.91 28.25h6.93v6.14h-6.93v-6.14zm.27 10.45h6.45v28.17h-6.45V38.71zM862.33 38.71h6.93l7.58 20.7 7.63-20.7h6.77l-11.52 28.38h-5.82l-11.57-28.38zM894.12 52.9v-.1c0-8.06 5.71-14.67 13.77-14.67 9 0 13.5 7 13.5 15.15 0 .58 0 1.17-.11 1.81h-20.7c.69 4.59 3.95 7.15 8.11 7.15a10.22 10.22 0 0 0 7.63-3.37l3.79 3.37a14.27 14.27 0 0 1-11.53 5.27c-8.16 0-14.46-5.92-14.46-14.61M915 50.82c-.43-4.16-2.88-7.42-7.15-7.42-3.95 0-6.72 3-7.31 7.42H915zM924.53 63.2l2.88-4.37a15.86 15.86 0 0 0 9.23 3.47c2.77 0 4.37-1.18 4.37-3v-.16c0-2.19-3-2.93-6.29-3.95-4.16-1.17-8.81-2.88-8.81-8.27v-.1c0-5.34 4.43-8.59 10-8.59a19.56 19.56 0 0 1 10.36 3.2L943.74 46a16.36 16.36 0 0 0-8-2.67c-2.51 0-3.95 1.18-3.95 2.83v.11c0 2 3 2.88 6.35 3.94 4.11 1.28 8.75 3.15 8.75 8.22v.1c0 5.92-4.59 8.86-10.45 8.86a19.79 19.79 0 0 1-12-4.21M565.06 112.23v-.11a15 15 0 0 1 30-.11v.11A14.73 14.73 0 0 1 580 126.8a14.56 14.56 0 0 1-14.94-14.56m23.58 0v-.11c0-5-3.58-9.07-8.64-9.07s-8.48 4.06-8.48 9v.11c0 4.91 3.57 9.07 8.59 9.07 5.23 0 8.54-4.11 8.54-9M602 103.53h-3.58v-5.39H602v-2c0-3.15.8-5.49 2.29-7a8.53 8.53 0 0 1 6.35-2.24 17.29 17.29 0 0 1 5.23.74v5.44a11.33 11.33 0 0 0-3.79-.69c-2.45 0-3.74 1.33-3.74 4.26v1.55h7.47v5.34h-7.36v22.62H602v-22.63zM634.52 98H641v4.7c2.08-2.93 5-5.28 9.55-5.28 6.67 0 13.12 5.28 13.12 14.61v.11c0 9.33-6.4 14.61-13.12 14.61a11.49 11.49 0 0 1-9.55-5v12.91h-6.46V98zm22.57 14.14V112c0-5.44-3.68-9-8.05-9s-8.21 3.63-8.21 9v.11c0 5.44 3.84 9 8.21 9s8.05-3.47 8.05-9M667.66 112.18v-.11c0-8.05 5.71-14.66 13.77-14.66 9 0 13.5 7 13.5 15.15 0 .59-.06 1.18-.11 1.82h-20.7a7.87 7.87 0 0 0 8.11 7.15 10.25 10.25 0 0 0 7.63-3.36l3.79 3.36a14.25 14.25 0 0 1-11.52 5.28c-8.16 0-14.46-5.92-14.46-14.62m20.86-2.08c-.43-4.16-2.88-7.42-7.15-7.42-3.94 0-6.72 3-7.31 7.42h14.46zM698.81 112.23v-.11a15 15 0 0 1 30-.11v.11a14.73 14.73 0 0 1-15.1 14.67 14.56 14.56 0 0 1-14.94-14.56m23.58 0v-.11c0-5-3.58-9.07-8.64-9.07s-8.48 4.06-8.48 9v.11c0 4.91 3.57 9.07 8.59 9.07 5.23 0 8.54-4.11 8.54-9M734.34 98h6.46v4.7c2.08-2.93 5-5.28 9.55-5.28 6.67 0 13.12 5.28 13.12 14.61v.11c0 9.33-6.4 14.61-13.12 14.61a11.49 11.49 0 0 1-9.55-5v12.91h-6.46V98zm22.57 14.14V112c0-5.44-3.68-9-8.05-9s-8.22 3.63-8.22 9v.11c0 5.44 3.84 9 8.22 9s8.05-3.47 8.05-9M769.39 87.21h6.46v38.95h-6.46zM781.66 112.18v-.11c0-8.05 5.71-14.66 13.77-14.66 9 0 13.5 7 13.5 15.15 0 .59-.05 1.18-.11 1.82h-20.7a7.87 7.87 0 0 0 8.11 7.15 10.24 10.24 0 0 0 7.63-3.36l3.79 3.36a14.25 14.25 0 0 1-11.52 5.28c-8.16 0-14.46-5.92-14.46-14.62m20.86-2.08c-.43-4.16-2.88-7.42-7.14-7.42-4 0-6.72 3-7.32 7.42h14.46zM826.96 97.99h6.62l5.65 19.31 6.24-19.42h5.5l6.29 19.42 5.76-19.31h6.46l-9.23 28.38h-5.76l-6.3-19.26-6.35 19.26h-5.76l-9.12-28.38zM874.28 87.53h6.94v6.14h-6.94v-6.14zm.27 10.47H881v28.17h-6.45V98zM889.7 118.36v-14.83h-3.58V98h3.58v-7.75h6.46V98h7.57v5.55h-7.57v13.82c0 2.51 1.28 3.52 3.46 3.52a8.65 8.65 0 0 0 4-1v5.28a11.3 11.3 0 0 1-5.81 1.44c-4.75 0-8.11-2.08-8.11-8.27M909.17 87.21h6.46v15.15c1.81-2.66 4.43-5 8.8-5 6.35 0 10 4.27 10 10.83v17.93H928v-16c0-4.38-2.19-6.89-6-6.89s-6.35 2.61-6.35 7v15.9h-6.46V87.21zM590.54 181.06v4.38h-6.45v-38.95h6.45V162c2.08-2.94 5-5.28 9.55-5.28 6.67 0 13.12 5.28 13.12 14.61v.11c0 9.34-6.4 14.62-13.12 14.62a11.49 11.49 0 0 1-9.55-5m16.11-9.66v-.11c0-5.44-3.68-9-8.05-9s-8.21 3.63-8.21 9v.11c0 5.44 3.84 9 8.21 9s8.05-3.47 8.05-9M619.13 146.49h6.45v38.95h-6.45zM631.4 171.51v-.1a15 15 0 0 1 30-.11v.11a14.72 14.72 0 0 1-15.1 14.67 14.57 14.57 0 0 1-14.93-14.57m23.58 0v-.1c0-5-3.57-9.07-8.65-9.07s-8.48 4.06-8.48 9v.11c0 4.91 3.57 9.07 8.59 9.07 5.23 0 8.54-4.11 8.54-9M665.38 171.51v-.1a15 15 0 0 1 30-.11v.11a14.73 14.73 0 0 1-15.1 14.67 14.57 14.57 0 0 1-14.94-14.57m23.58 0v-.1c0-5-3.57-9.07-8.65-9.07s-8.48 4.06-8.48 9v.11c0 4.91 3.58 9.07 8.59 9.07 5.23 0 8.54-4.11 8.54-9M699.48 171.4v-.11c0-9.33 6.35-14.61 13.07-14.61a11.65 11.65 0 0 1 9.6 5v-15.19h6.46v38.95h-6.46v-4.69c-2.08 2.93-5 5.28-9.6 5.28-6.62 0-13.07-5.28-13.07-14.62m22.78 0v-.11c0-5.44-3.84-9-8.16-9s-8.11 3.42-8.11 9v.11c0 5.44 3.73 9 8.11 9s8.16-3.63 8.16-9M749 171.51v-.1a14.52 14.52 0 0 1 14.62-14.72 14.06 14.06 0 0 1 11.26 4.86l-4 4.32c-2-2.08-4.05-3.52-7.31-3.52-4.69 0-8.11 4.06-8.11 9v.11c0 5 3.47 9.07 8.43 9.07 3 0 5.28-1.44 7.31-3.52l3.89 3.84a14.77 14.77 0 0 1-26.09-9.34M797.16 185.43V182a11.39 11.39 0 0 1-9.16 4c-5.34 0-10-3-10-8.7v-.11c0-6.24 4.85-9.23 11.41-9.23a23.78 23.78 0 0 1 7.79 1.18v-.53c0-3.9-2.46-6-6.94-6a19.62 19.62 0 0 0-8.06 1.76l-1.76-5.18a24.16 24.16 0 0 1 10.72-2.35c8.33 0 12.38 4.38 12.38 11.9v16.69h-6.4zm.16-11.79a18.45 18.45 0 0 0-6.46-1.11c-4.05 0-6.45 1.65-6.45 4.37v.1c0 2.67 2.4 4.16 5.44 4.16 4.27 0 7.47-2.41 7.47-5.92v-1.61zM810.18 157.26h6.46v4.37c1.81-2.66 4.42-5 8.8-5 6.35 0 10 4.27 10 10.83v17.93H829v-16c0-4.37-2.19-6.88-6-6.88s-6.35 2.62-6.35 7v15.9h-6.46v-28.15zM840.64 171.51v-.1a14.53 14.53 0 0 1 14.62-14.72 14 14 0 0 1 11.26 4.86l-4 4.32c-2-2.08-4.05-3.52-7.31-3.52-4.7 0-8.11 4.06-8.11 9v.11c0 5 3.47 9.07 8.43 9.07 3 0 5.28-1.44 7.31-3.52l3.89 3.84a14.77 14.77 0 0 1-26.09-9.29M870 171.45v-.1c0-8.06 5.71-14.67 13.76-14.67 9 0 13.5 7 13.5 15.15 0 .59-.05 1.17-.11 1.81h-20.7c.69 4.59 3.95 7.15 8.11 7.15a10.23 10.23 0 0 0 7.63-3.36l3.79 3.36a14.23 14.23 0 0 1-11.52 5.28c-8.16 0-14.46-5.92-14.46-14.62m20.86-2.08c-.43-4.16-2.88-7.41-7.15-7.41-3.95 0-6.73 3-7.31 7.41h14.5zM902.74 157.26h6.45v6.35c1.76-4.21 5-7.09 10-6.89v6.83h-.39c-5.66 0-9.61 3.69-9.61 11.16v10.72h-6.45v-28.17z"/></svg>